<svg width="500" height="500" viewBox="0 0 500 500" fill="none" xmlns="http://www.w3.org/2000/svg">
<path d="M396.651 425.634C411.507 424.978 422.649 420.393 433.737 407.726C444.824 395.058 447.837 382.27 444.333 360.634C440.829 338.997 414.053 321.06 396.651 322.164C385.049 322.9 377.323 324.669 373.472 327.47V117.214C373.472 106.969 373.472 98.5677 373.472 92.0104C373.472 85.453 371.706 80.589 368.173 77.4184C363.187 72.493 356.924 76.3317 354.267 78.081C351.609 79.8317 348.531 84.0877 346.981 88.6944C330.545 121.883 306.925 151.951 276.12 178.898C229.912 219.32 239.736 261.481 241.02 272.42C242.304 283.357 249.047 309.677 257.576 322.828C266.105 335.978 276.645 346.977 282.08 352.674C287.513 358.372 293.46 360.754 301.285 361.297C309.111 361.84 310.489 361.162 313.868 357.981C317.247 354.798 316.533 350.51 315.855 346.705C315.177 342.9 308.564 336.586 303.272 332.113C297.98 327.641 292.509 320.732 284.729 313.541C276.949 306.352 276.061 304.926 272.808 294.306C269.555 283.688 273.703 281.688 276.12 277.725C278.536 273.762 282.969 268.82 288.703 264.46C294.436 260.1 297.789 256.76 303.272 252.521C308.755 248.282 313.204 244.917 317.841 241.909C322.48 238.901 328.237 230.53 329.1 223.337C329.675 218.541 329.896 211.245 329.763 201.449C314.117 215.758 305.065 223.939 302.609 225.99C298.925 229.068 282.068 241.386 270.159 248.541C268.804 237.452 273.219 225.734 283.404 213.388C298.683 194.869 319.213 174.181 344.332 159.664V373.9C346.804 417.258 381.795 426.29 396.651 425.634Z" fill="white" stroke="white" stroke-width="1.33333" stroke-miterlimit="3" stroke-linecap="square"/>
<path d="M396.651 425.634C411.507 424.978 422.649 420.393 433.737 407.726C444.824 395.058 447.837 382.27 444.333 360.634C440.829 338.997 414.053 321.06 396.651 322.164C385.049 322.9 377.323 324.669 373.472 327.47V117.214C373.472 106.969 373.472 98.5677 373.472 92.0104C373.472 85.453 371.706 80.589 368.173 77.4184C363.187 72.493 356.924 76.3317 354.267 78.081C351.609 79.8317 348.531 84.0877 346.981 88.6944C330.545 121.883 306.925 151.951 276.12 178.898C229.912 219.32 239.736 261.481 241.02 272.42C242.304 283.357 249.047 309.677 257.576 322.828C266.105 335.978 276.645 346.977 282.08 352.674C287.513 358.372 293.46 360.754 301.285 361.297C309.111 361.84 310.489 361.162 313.868 357.981C317.247 354.798 316.533 350.51 315.855 346.705C315.177 342.9 308.564 336.586 303.272 332.113C297.98 327.641 292.509 320.732 284.729 313.541C276.949 306.352 276.061 304.926 272.808 294.306C269.555 283.688 273.703 281.688 276.12 277.725C278.536 273.762 282.969 268.82 288.703 264.46C294.436 260.1 297.789 256.76 303.272 252.521C308.755 248.282 313.204 244.917 317.841 241.909C322.48 238.901 328.237 230.53 329.1 223.337C329.675 218.541 329.896 211.245 329.763 201.449C314.117 215.758 305.065 223.939 302.609 225.99C298.925 229.068 282.068 241.386 270.159 248.541C268.804 237.452 273.219 225.734 283.404 213.388C298.683 194.869 319.213 174.181 344.332 159.664V373.9C346.804 417.258 381.795 426.29 396.651 425.634Z" fill="white" stroke="white" stroke-width="1.33333" stroke-miterlimit="3" stroke-linecap="square"/>
<path d="M104.067 425.634C89.2107 424.978 78.0681 420.393 66.9801 407.726C55.8934 395.058 52.8801 382.27 56.3841 360.634C59.8881 338.997 86.6641 321.06 104.067 322.164C115.669 322.9 123.395 324.669 127.245 327.47V117.214C127.245 106.969 127.245 98.5677 127.245 92.0104C127.245 85.453 129.012 80.589 132.544 77.4184C137.531 72.493 143.793 76.3317 146.451 78.081C149.108 79.8317 152.187 84.0877 153.736 88.6944C170.173 121.883 193.793 151.951 224.597 178.898C270.805 219.32 260.981 261.481 259.697 272.42C258.413 283.357 251.671 309.677 243.141 322.828C234.612 335.978 224.072 346.977 218.637 352.674C213.204 358.372 207.257 360.754 199.432 361.297C191.607 361.84 190.228 361.162 186.849 357.981C183.471 354.798 184.184 350.51 184.863 346.705C185.54 342.9 192.153 336.586 197.445 332.113C202.737 327.641 208.208 320.732 215.988 313.541C223.768 306.352 224.656 304.926 227.909 294.306C231.163 283.688 227.015 281.688 224.597 277.725C222.181 273.762 217.748 268.82 212.015 264.46C206.281 260.1 202.928 256.76 197.445 252.521C191.963 248.282 187.513 244.917 182.876 241.909C178.237 238.901 172.48 230.53 171.617 223.337C171.042 218.541 170.821 211.245 170.955 201.449C186.601 215.758 195.652 223.939 198.108 225.99C201.792 229.068 218.649 241.386 230.559 248.541C231.913 237.452 227.498 225.734 217.313 213.388C202.035 194.869 181.504 174.181 156.385 159.664V373.9C153.913 417.258 118.923 426.289 104.067 425.634Z" fill="white" stroke="white" stroke-width="1.33333" stroke-miterlimit="3" stroke-linecap="square"/>
</svg>
